<svg width="1276" height="274" viewBox="0 0 1276 274" fill="none" xmlns="http://www.w3.org/2000/svg">
<g clip-path="url(#clip0_13_73)" filter="url(#filter0_d_13_73)">
<path d="M188.774 82.4048C191.197 96.4167 176.331 92.6845 176.331 92.6845C170.11 75.1369 160.156 76.7738 160.156 76.7738C167.949 82.4703 168.538 87.3155 168.538 87.3155C147.779 72.5834 119.554 84.4345 108.814 90C102.789 81.4881 90.6089 62.4345 94.9311 53.7917C100.628 42.4643 112.22 48.9464 112.22 48.9464C135.664 48.5536 134.354 40.1726 134.354 40.1726C128.133 45.0179 109.797 40.1726 109.797 40.1726C125.71 40.1726 132.455 33.6905 132.455 33.6905C120.602 36.6369 107.374 24 107.374 24C102.528 -0.815457 80.1311 9.72621 80.1311 9.72621C94.1452 7.30359 90.4125 22.1667 90.4125 22.1667C72.862 28.3869 74.4992 38.3393 74.4992 38.3393C80.1965 30.5476 85.0426 29.9584 85.0426 29.9584C68.9983 52.5476 84.4532 83.9762 89.0373 92.1607C80.655 97.9881 61.0089 110.821 52.1682 106.369C40.839 100.673 47.3222 89.0834 47.3222 89.0834C47.0603 65.6429 38.678 66.9524 38.678 66.9524C43.524 73.1726 38.678 91.506 38.678 91.506C38.678 75.5953 32.1948 68.8512 32.1948 68.8512C35.1417 80.7024 22.5027 93.9286 22.5027 93.9286C-2.31674 98.7738 8.22663 121.167 8.22663 121.167C5.80362 107.155 20.6691 110.887 20.6691 110.887C26.8903 128.435 36.8443 126.798 36.8443 126.798C29.0514 121.101 28.462 116.256 28.462 116.256C50.4001 131.839 80.7204 117.696 89.8886 112.72C96.0443 121.56 107.505 139.762 103.248 148.208C97.5505 159.536 85.9594 153.054 85.9594 153.054C62.5151 153.315 63.8249 161.696 63.8249 161.696C70.0461 156.851 88.3824 161.696 88.3824 161.696C72.4691 161.696 65.724 168.179 65.724 168.179C77.5771 165.232 90.8054 177.869 90.8054 177.869C95.6514 202.685 118.048 192.143 118.048 192.143C104.034 194.565 107.766 179.702 107.766 179.702C125.317 173.482 123.68 163.53 123.68 163.53C117.982 171.321 113.136 171.911 113.136 171.911C128.853 149.845 114.381 119.268 109.469 110.298C118.375 104.077 136.384 92.9464 144.701 97.1369C156.03 102.833 149.547 114.423 149.547 114.423C149.809 137.863 158.191 136.554 158.191 136.554C153.345 130.333 158.191 112 158.191 112C158.191 127.911 164.674 134.655 164.674 134.655C161.728 122.804 174.366 109.577 174.366 109.577C199.317 104.798 188.774 82.4048 188.774 82.4048Z" fill="url(#paint0_linear_13_73)"/>
</g>
<path d="M1011.16 169.132C1011.64 169.284 1012.02 169.54 1012.29 169.9C1012.56 170.252 1012.7 170.688 1012.7 171.208C1012.7 171.944 1012.41 172.512 1011.84 172.912C1011.27 173.304 1010.44 173.5 1009.34 173.5H1005V165.1H1009.1C1010.12 165.1 1010.91 165.296 1011.45 165.688C1012 166.08 1012.28 166.612 1012.28 167.284C1012.28 167.692 1012.18 168.056 1011.98 168.376C1011.79 168.696 1011.52 168.948 1011.16 169.132ZM1006.93 166.564V168.544H1008.86C1009.34 168.544 1009.7 168.46 1009.95 168.292C1010.2 168.124 1010.32 167.876 1010.32 167.548C1010.32 167.22 1010.2 166.976 1009.95 166.816C1009.7 166.648 1009.34 166.564 1008.86 166.564H1006.93ZM1009.2 172.036C1009.71 172.036 1010.09 171.952 1010.35 171.784C1010.61 171.616 1010.74 171.356 1010.74 171.004C1010.74 170.308 1010.23 169.96 1009.2 169.96H1006.93V172.036H1009.2ZM1017.9 173.644C1016.7 173.644 1015.77 173.312 1015.1 172.648C1014.43 171.984 1014.1 171.036 1014.1 169.804V165.1H1016.04V169.732C1016.04 171.236 1016.67 171.988 1017.92 171.988C1018.52 171.988 1018.99 171.808 1019.31 171.448C1019.63 171.08 1019.79 170.508 1019.79 169.732V165.1H1021.71V169.804C1021.71 171.036 1021.37 171.984 1020.7 172.648C1020.04 173.312 1019.1 173.644 1017.9 173.644ZM1023.63 165.1H1025.57V173.5H1023.63V165.1ZM1027.57 165.1H1029.51V171.916H1033.72V173.5H1027.57V165.1ZM1034.81 165.1H1038.62C1039.54 165.1 1040.34 165.276 1041.04 165.628C1041.74 165.972 1042.28 166.46 1042.67 167.092C1043.06 167.724 1043.26 168.46 1043.26 169.3C1043.26 170.14 1043.06 170.876 1042.67 171.508C1042.28 172.14 1041.74 172.632 1041.04 172.984C1040.34 173.328 1039.54 173.5 1038.62 173.5H1034.81V165.1ZM1038.53 171.904C1039.37 171.904 1040.04 171.672 1040.53 171.208C1041.04 170.736 1041.29 170.1 1041.29 169.3C1041.29 168.5 1041.04 167.868 1040.53 167.404C1040.04 166.932 1039.37 166.696 1038.53 166.696H1036.75V171.904H1038.53ZM1052.15 170.524V173.5H1050.21V170.5L1046.96 165.1H1049.02L1051.27 168.832L1053.51 165.1H1055.42L1052.15 170.524ZM1059.94 173.644C1059.06 173.644 1058.28 173.456 1057.57 173.08C1056.88 172.704 1056.33 172.188 1055.93 171.532C1055.54 170.868 1055.34 170.124 1055.34 169.3C1055.34 168.476 1055.54 167.736 1055.93 167.08C1056.33 166.416 1056.88 165.896 1057.57 165.52C1058.28 165.144 1059.06 164.956 1059.94 164.956C1060.81 164.956 1061.59 165.144 1062.29 165.52C1062.98 165.896 1063.53 166.416 1063.93 167.08C1064.33 167.736 1064.53 168.476 1064.53 169.3C1064.53 170.124 1064.33 170.868 1063.93 171.532C1063.53 172.188 1062.98 172.704 1062.29 173.08C1061.59 173.456 1060.81 173.644 1059.94 173.644ZM1059.94 171.988C1060.43 171.988 1060.88 171.876 1061.28 171.652C1061.68 171.42 1061.99 171.1 1062.22 170.692C1062.45 170.284 1062.56 169.82 1062.56 169.3C1062.56 168.78 1062.45 168.316 1062.22 167.908C1061.99 167.5 1061.68 167.184 1061.28 166.96C1060.88 166.728 1060.43 166.612 1059.94 166.612C1059.44 166.612 1058.99 166.728 1058.59 166.96C1058.19 167.184 1057.88 167.5 1057.64 167.908C1057.42 168.316 1057.31 168.78 1057.31 169.3C1057.31 169.82 1057.42 170.284 1057.64 170.692C1057.88 171.1 1058.19 171.42 1058.59 171.652C1058.99 171.876 1059.44 171.988 1059.94 171.988ZM1069.72 173.644C1068.52 173.644 1067.59 173.312 1066.92 172.648C1066.25 171.984 1065.92 171.036 1065.92 169.804V165.1H1067.86V169.732C1067.86 171.236 1068.49 171.988 1069.74 171.988C1070.34 171.988 1070.81 171.808 1071.13 171.448C1071.45 171.08 1071.61 170.508 1071.61 169.732V165.1H1073.53V169.804C1073.53 171.036 1073.19 171.984 1072.52 172.648C1071.86 173.312 1070.92 173.644 1069.72 173.644ZM1080.8 173.5L1079.18 171.16H1079.09H1077.39V173.5H1075.45V165.1H1079.09C1079.83 165.1 1080.47 165.224 1081.02 165.472C1081.57 165.72 1081.99 166.072 1082.29 166.528C1082.59 166.984 1082.73 167.524 1082.73 168.148C1082.73 168.772 1082.58 169.312 1082.28 169.768C1081.98 170.216 1081.56 170.56 1081.01 170.8L1082.89 173.5H1080.8ZM1080.77 168.148C1080.77 167.676 1080.61 167.316 1080.31 167.068C1080.01 166.812 1079.56 166.684 1078.98 166.684H1077.39V169.612H1078.98C1079.56 169.612 1080.01 169.484 1080.31 169.228C1080.61 168.972 1080.77 168.612 1080.77 168.148ZM1100.37 165.1L1097.62 173.5H1095.53L1093.68 167.812L1091.78 173.5H1089.7L1086.94 165.1H1088.96L1090.85 171.004L1092.83 165.1H1094.63L1096.55 171.052L1098.51 165.1H1100.37ZM1105.42 173.644C1104.54 173.644 1103.76 173.456 1103.05 173.08C1102.36 172.704 1101.81 172.188 1101.41 171.532C1101.02 170.868 1100.82 170.124 1100.82 169.3C1100.82 168.476 1101.02 167.736 1101.41 167.08C1101.81 166.416 1102.36 165.896 1103.05 165.52C1103.76 165.144 1104.54 164.956 1105.42 164.956C1106.29 164.956 1107.07 165.144 1107.77 165.52C1108.46 165.896 1109.01 166.416 1109.41 167.08C1109.81 167.736 1110.01 168.476 1110.01 169.3C1110.01 170.124 1109.81 170.868 1109.41 171.532C1109.01 172.188 1108.46 172.704 1107.77 173.08C1107.07 173.456 1106.29 173.644 1105.42 173.644ZM1105.42 171.988C1105.91 171.988 1106.36 171.876 1106.76 171.652C1107.16 171.42 1107.47 171.1 1107.7 170.692C1107.93 170.284 1108.04 169.82 1108.04 169.3C1108.04 168.78 1107.93 168.316 1107.7 167.908C1107.47 167.5 1107.16 167.184 1106.76 166.96C1106.36 166.728 1105.91 166.612 1105.42 166.612C1104.92 166.612 1104.47 166.728 1104.07 166.96C1103.67 167.184 1103.36 167.5 1103.12 167.908C1102.9 168.316 1102.79 168.78 1102.79 169.3C1102.79 169.82 1102.9 170.284 1103.12 170.692C1103.36 171.1 1103.67 171.42 1104.07 171.652C1104.47 171.876 1104.92 171.988 1105.42 171.988ZM1116.82 173.5L1115.2 171.16H1115.11H1113.42V173.5H1111.47V165.1H1115.11C1115.85 165.1 1116.5 165.224 1117.04 165.472C1117.59 165.72 1118.02 166.072 1118.31 166.528C1118.61 166.984 1118.76 167.524 1118.76 168.148C1118.76 168.772 1118.6 169.312 1118.3 169.768C1118 170.216 1117.58 170.56 1117.03 170.8L1118.91 173.5H1116.82ZM1116.79 168.148C1116.79 167.676 1116.64 167.316 1116.33 167.068C1116.03 166.812 1115.58 166.684 1115 166.684H1113.42V169.612H1115C1115.58 169.612 1116.03 169.484 1116.33 169.228C1116.64 168.972 1116.79 168.612 1116.79 168.148ZM1120.3 165.1H1122.24V171.916H1126.45V173.5H1120.3V165.1ZM1127.54 165.1H1131.35C1132.27 165.1 1133.07 165.276 1133.77 165.628C1134.47 165.972 1135.01 166.46 1135.4 167.092C1135.79 167.724 1135.99 168.46 1135.99 169.3C1135.99 170.14 1135.79 170.876 1135.4 171.508C1135.01 172.14 1134.47 172.632 1133.77 172.984C1133.07 173.328 1132.27 173.5 1131.35 173.5H1127.54V165.1ZM1131.26 171.904C1132.1 171.904 1132.77 171.672 1133.26 171.208C1133.77 170.736 1134.02 170.1 1134.02 169.3C1134.02 168.5 1133.77 167.868 1133.26 167.404C1132.77 166.932 1132.1 166.696 1131.26 166.696H1129.48V171.904H1131.26Z" fill="#343045"/>
<path d="M7 273.5H1276" stroke="url(#paint1_linear_13_73)"/>
<path d="M291 196V0" stroke="url(#paint2_linear_13_73)" stroke-width="6"/>
<path d="M610 200.5V4.5" stroke="url(#paint3_linear_13_73)" stroke-width="6"/>
<path d="M895 203.5V7.5" stroke="url(#paint4_linear_13_73)" stroke-width="6"/>
<defs>
<filter id="filter0_d_13_73" x="0" y="7.5" width="197" height="203" filterUnits="userSpaceOnUse" color-interpolation-filters="sRGB">
<feFlood flood-opacity="0" result="BackgroundImageFix"/>
<feColorMatrix in="SourceAlpha" type="matrix" values="0 0 0 0 0 0 0 0 0 0 0 0 0 0 0 0 0 0 127 0" result="hardAlpha"/>
<feOffset dy="10"/>
<feGaussianBlur stdDeviation="3"/>
<feComposite in2="hardAlpha" operator="out"/>
<feColorMatrix type="matrix" values="0 0 0 0 0 0 0 0 0 0 0 0 0 0 0 0 0 0 0.25 0"/>
<feBlend mode="normal" in2="BackgroundImageFix" result="effect1_dropShadow_13_73"/>
<feBlend mode="normal" in="SourceGraphic" in2="effect1_dropShadow_13_73" result="shape"/>
</filter>
<linearGradient id="paint0_linear_13_73" x1="98.4938" y1="7.50195" x2="98.4938" y2="194.367" gradientUnits="userSpaceOnUse">
<stop stop-color="#C0B7E8"/>
<stop offset="1" stop-color="#8176AF"/>
</linearGradient>
<linearGradient id="paint1_linear_13_73" x1="1276" y1="273.502" x2="7" y2="273.48" gradientUnits="userSpaceOnUse">
<stop stop-color="#343045"/>
<stop offset="0.348958" stop-color="#C0B7E8"/>
<stop offset="0.6875" stop-color="#8176AF"/>
<stop offset="1" stop-color="#343045"/>
</linearGradient>
<linearGradient id="paint2_linear_13_73" x1="290.995" y1="0.929815" x2="365.322" y2="162.259" gradientUnits="userSpaceOnUse">
<stop stop-color="#343045"/>
<stop stop-color="#343045"/>
<stop offset="0.348958" stop-color="#C0B7E8"/>
<stop offset="0.6875" stop-color="#8176AF"/>
<stop offset="0.994792" stop-color="#343045"/>
</linearGradient>
<linearGradient id="paint3_linear_13_73" x1="609.995" y1="5.42982" x2="684.322" y2="166.759" gradientUnits="userSpaceOnUse">
<stop stop-color="#343045"/>
<stop stop-color="#343045"/>
<stop offset="0.348958" stop-color="#C0B7E8"/>
<stop offset="0.6875" stop-color="#8176AF"/>
<stop offset="0.994792" stop-color="#343045"/>
</linearGradient>
<linearGradient id="paint4_linear_13_73" x1="894.995" y1="8.42982" x2="969.322" y2="169.759" gradientUnits="userSpaceOnUse">
<stop stop-color="#343045"/>
<stop stop-color="#343045"/>
<stop offset="0.348958" stop-color="#C0B7E8"/>
<stop offset="0.6875" stop-color="#8176AF"/>
<stop offset="0.994792" stop-color="#343045"/>
</linearGradient>
<clipPath id="clip0_13_73">
<rect width="185" height="187" fill="white" transform="translate(6 7.5)"/>
</clipPath>
</defs>
</svg>
