<svg width="1270" height="1016" viewBox="0 0 1270 1016" fill="none" xmlns="http://www.w3.org/2000/svg">
<g filter="url(#filter0_d_13_72)">
<path d="M4 100C4 44.7715 48.7715 0 104 0H1165.56C1220.79 0 1265.56 44.7715 1265.56 100V908C1265.56 963.228 1220.79 1008 1165.56 1008H104C48.7716 1008 4 963.228 4 908V100Z" fill="url(#paint0_radial_13_72)"/>
</g>
<path d="M604.399 826.144C603.727 826.144 603.083 826.056 602.467 825.88C601.851 825.696 601.355 825.46 600.979 825.172L601.639 823.708C601.999 823.964 602.423 824.176 602.911 824.344C603.407 824.504 603.907 824.584 604.411 824.584C604.795 824.584 605.103 824.548 605.335 824.476C605.575 824.396 605.751 824.288 605.863 824.152C605.975 824.016 606.031 823.86 606.031 823.684C606.031 823.46 605.943 823.284 605.767 823.156C605.591 823.02 605.359 822.912 605.071 822.832C604.783 822.744 604.463 822.664 604.111 822.592C603.767 822.512 603.419 822.416 603.067 822.304C602.723 822.192 602.407 822.048 602.119 821.872C601.831 821.696 601.595 821.464 601.411 821.176C601.235 820.888 601.147 820.52 601.147 820.072C601.147 819.592 601.275 819.156 601.531 818.764C601.795 818.364 602.187 818.048 602.707 817.816C603.235 817.576 603.895 817.456 604.687 817.456C605.215 817.456 605.735 817.52 606.247 817.648C606.759 817.768 607.211 817.952 607.603 818.2L607.003 819.676C606.611 819.452 606.219 819.288 605.827 819.184C605.435 819.072 605.051 819.016 604.675 819.016C604.299 819.016 603.991 819.06 603.751 819.148C603.511 819.236 603.339 819.352 603.235 819.496C603.131 819.632 603.079 819.792 603.079 819.976C603.079 820.192 603.167 820.368 603.343 820.504C603.519 820.632 603.751 820.736 604.039 820.816C604.327 820.896 604.643 820.976 604.987 821.056C605.339 821.136 605.687 821.228 606.031 821.332C606.383 821.436 606.703 821.576 606.991 821.752C607.279 821.928 607.511 822.16 607.687 822.448C607.871 822.736 607.963 823.1 607.963 823.54C607.963 824.012 607.831 824.444 607.567 824.836C607.303 825.228 606.907 825.544 606.379 825.784C605.859 826.024 605.199 826.144 604.399 826.144ZM611.08 820.984H615.124V822.496H611.08V820.984ZM611.224 824.44H615.796V826H609.292V817.6H615.64V819.16H611.224V824.44ZM617.343 826V817.6H618.951L623.907 823.648H623.127V817.6H625.047V826H623.451L618.483 819.952H619.263V826H617.343ZM627.034 826V817.6H630.85C631.762 817.6 632.566 817.776 633.262 818.128C633.958 818.472 634.502 818.956 634.894 819.58C635.286 820.204 635.482 820.944 635.482 821.8C635.482 822.648 635.286 823.388 634.894 824.02C634.502 824.644 633.958 825.132 633.262 825.484C632.566 825.828 631.762 826 630.85 826H627.034ZM628.978 824.404H630.754C631.314 824.404 631.798 824.3 632.206 824.092C632.622 823.876 632.942 823.572 633.166 823.18C633.398 822.788 633.514 822.328 633.514 821.8C633.514 821.264 633.398 820.804 633.166 820.42C632.942 820.028 632.622 819.728 632.206 819.52C631.798 819.304 631.314 819.196 630.754 819.196H628.978V824.404ZM642.087 826V819.184H639.399V817.6H646.719V819.184H644.031V826H642.087ZM651.727 826.144C651.063 826.144 650.447 826.036 649.879 825.82C649.319 825.604 648.831 825.3 648.415 824.908C648.007 824.516 647.687 824.056 647.455 823.528C647.231 823 647.119 822.424 647.119 821.8C647.119 821.176 647.231 820.6 647.455 820.072C647.687 819.544 648.011 819.084 648.427 818.692C648.843 818.3 649.331 817.996 649.891 817.78C650.451 817.564 651.059 817.456 651.715 817.456C652.379 817.456 652.987 817.564 653.539 817.78C654.099 817.996 654.583 818.3 654.991 818.692C655.407 819.084 655.731 819.544 655.963 820.072C656.195 820.592 656.311 821.168 656.311 821.8C656.311 822.424 656.195 823.004 655.963 823.54C655.731 824.068 655.407 824.528 654.991 824.92C654.583 825.304 654.099 825.604 653.539 825.82C652.987 826.036 652.383 826.144 651.727 826.144ZM651.715 824.488C652.091 824.488 652.435 824.424 652.747 824.296C653.067 824.168 653.347 823.984 653.587 823.744C653.827 823.504 654.011 823.22 654.139 822.892C654.275 822.564 654.343 822.2 654.343 821.8C654.343 821.4 654.275 821.036 654.139 820.708C654.011 820.38 653.827 820.096 653.587 819.856C653.355 819.616 653.079 819.432 652.759 819.304C652.439 819.176 652.091 819.112 651.715 819.112C651.339 819.112 650.991 819.176 650.671 819.304C650.359 819.432 650.083 819.616 649.843 819.856C649.603 820.096 649.415 820.38 649.279 820.708C649.151 821.036 649.087 821.4 649.087 821.8C649.087 822.192 649.151 822.556 649.279 822.892C649.415 823.22 649.599 823.504 649.831 823.744C650.071 823.984 650.351 824.168 650.671 824.296C650.991 824.424 651.339 824.488 651.715 824.488ZM607.399 832.6H609.343V841H607.399V832.6ZM603.583 841H601.639V832.6H603.583V841ZM607.543 837.556H603.439V835.912H607.543V837.556ZM613.419 841V837.568L613.863 838.744L610.167 832.6H612.231L615.063 837.316H613.875L616.719 832.6H618.627L614.931 838.744L615.363 837.568V841H613.419ZM619.37 841V832.6H623.186C624.098 832.6 624.902 832.776 625.598 833.128C626.294 833.472 626.838 833.956 627.23 834.58C627.622 835.204 627.818 835.944 627.818 836.8C627.818 837.648 627.622 838.388 627.23 839.02C626.838 839.644 626.294 840.132 625.598 840.484C624.902 840.828 624.098 841 623.186 841H619.37ZM621.314 839.404H623.09C623.65 839.404 624.134 839.3 624.542 839.092C624.958 838.876 625.278 838.572 625.502 838.18C625.734 837.788 625.85 837.328 625.85 836.8C625.85 836.264 625.734 835.804 625.502 835.42C625.278 835.028 624.958 834.728 624.542 834.52C624.134 834.304 623.65 834.196 623.09 834.196H621.314V839.404ZM629.284 841V832.6H632.92C633.672 832.6 634.32 832.724 634.864 832.972C635.408 833.212 635.828 833.56 636.124 834.016C636.42 834.472 636.568 835.016 636.568 835.648C636.568 836.272 636.42 836.812 636.124 837.268C635.828 837.716 635.408 838.06 634.864 838.3C634.32 838.54 633.672 838.66 632.92 838.66H630.364L631.228 837.808V841H629.284ZM634.624 841L632.524 837.952H634.6L636.724 841H634.624ZM631.228 838.024L630.364 837.112H632.812C633.412 837.112 633.86 836.984 634.156 836.728C634.452 836.464 634.6 836.104 634.6 835.648C634.6 835.184 634.452 834.824 634.156 834.568C633.86 834.312 633.412 834.184 632.812 834.184H630.364L631.228 833.26V838.024ZM637.004 841L640.748 832.6H642.668L646.424 841H644.384L641.312 833.584H642.08L638.996 841H637.004ZM638.876 839.2L639.392 837.724H643.712L644.24 839.2H638.876Z" fill="#343045"/>
<path d="M449.256 86H858.892" stroke="url(#paint1_linear_13_72)"/>
<defs>
<filter id="filter0_d_13_72" x="0" y="0" width="1269.56" height="1016" filterUnits="userSpaceOnUse" color-interpolation-filters="sRGB">
<feFlood flood-opacity="0" result="BackgroundImageFix"/>
<feColorMatrix in="SourceAlpha" type="matrix" values="0 0 0 0 0 0 0 0 0 0 0 0 0 0 0 0 0 0 127 0" result="hardAlpha"/>
<feOffset dy="4"/>
<feGaussianBlur stdDeviation="2"/>
<feComposite in2="hardAlpha" operator="out"/>
<feColorMatrix type="matrix" values="0 0 0 0 0 0 0 0 0 0 0 0 0 0 0 0 0 0 0.25 0"/>
<feBlend mode="normal" in2="BackgroundImageFix" result="effect1_dropShadow_13_72"/>
<feBlend mode="normal" in="SourceGraphic" in2="effect1_dropShadow_13_72" result="shape"/>
</filter>
<radialGradient id="paint0_radial_13_72" cx="0" cy="0" r="1" gradientUnits="userSpaceOnUse" gradientTransform="translate(634.78 504) rotate(90) scale(504 630.78)">
<stop stop-color="#403A5F"/>
<stop offset="1" stop-color="#211E2E"/>
</radialGradient>
<linearGradient id="paint1_linear_13_72" x1="858.892" y1="86.0024" x2="449.256" y2="86.0001" gradientUnits="userSpaceOnUse">
<stop stop-color="#343045"/>
<stop offset="0.348958" stop-color="#C0B7E8"/>
<stop offset="0.6875" stop-color="#8176AF"/>
<stop offset="1" stop-color="#343045"/>
</linearGradient>
</defs>
</svg>
